<?xml version="1.0" encoding="utf-8"?>
<!-- Generator: Adobe Illustrator 16.0.0, SVG Export Plug-In . SVG Version: 6.00 Build 0)  -->
<!DOCTYPE svg PUBLIC "-//W3C//DTD SVG 1.1//EN" "http://www.w3.org/Graphics/SVG/1.1/DTD/svg11.dtd">
<svg version="1.1" id="Layer_1" xmlns="http://www.w3.org/2000/svg" xmlns:xlink="http://www.w3.org/1999/xlink" x="0px" y="0px"
	 width="1023.5px" height="1023.5px" viewBox="0 0 1023.5 1023.5" enable-background="new 0 0 1023.5 1023.5" xml:space="preserve">
<rect fill="none" width="1024" height="1024"/>
<g>
	<g>
		<polygon fill-rule="evenodd" clip-rule="evenodd" points="287,740 287,551.693 333,518.016 333,740 		"/>
		<polygon fill-rule="evenodd" clip-rule="evenodd" points="697,436.885 697,740 747,740 747,469.031 		"/>
		<polygon fill-rule="evenodd" clip-rule="evenodd" points="509,153.84 352,255.972 352,739.974 509,641.088 		"/>
		<g>
			<polygon fill-rule="evenodd" clip-rule="evenodd" points="525,652.722 384.323,740 682,740 682,432.49 525,345.562 			"/>
			<polygon fill-rule="evenodd" clip-rule="evenodd" points="682,303.713 525,207.272 525,322.706 682,411.453 			"/>
		</g>
	</g>
	<g>
		<g>
			<path d="M299.628,793.369h-1.578v16.701h-10.486v-43.799h15.146c7.999,0,13.988,5.897,13.988,13.666
				c0,5.777-2.367,9.574-6.723,12.084l10.602,18.049H309L299.628,793.369z M298.051,776.375v7.358h4.291
				c2.432,0,3.875-1.574,3.875-3.796c0-1.867-1.443-3.563-3.875-3.563H298.051z"/>
			<path d="M345.6,793.08v6.89h15.564v10.101h-26.047v-43.799h26.047v10.104H345.6v6.598h15.564v10.107H345.6z"/>
			<path d="M409.687,810.07l-3.51-7.707h-14.661l-3.523,7.707h-11.208l18.312-43.855h7.503l18.114,43.855H409.687z M395.397,792.78
				h6.839l-3.388-8.233L395.397,792.78z"/>
			<path d="M447.189,799.97H461v10.101h-24.289v-43.799h10.478V799.97z"/>
			<path d="M516.914,793.08v6.89h15.561v10.101h-26.05v-43.799h26.05v10.104h-15.561v6.598h15.561v10.107H516.914z"/>
			<path d="M557.496,797.923c1.092,1.519,2.184,2.508,4.607,2.508c1.68,0,3.265-1.05,3.265-3.033c0-2.744-2.358-3.736-5.389-4.904
				c-6.179-2.398-11.153-6.599-11.153-13.139c0-8.123,5.336-13.434,13.703-13.434c4.475,0,10.001,2.684,11.754,7.652l-9.522,4.204
				c-0.67-1.344-1.926-1.696-2.721-1.696c-1.515,0-2.727,1.457-2.727,2.921c0,2.103,2.671,3.207,4.608,3.971l0.773,0.353
				c7.641,3.264,10.979,6.658,10.979,14.018c0,7.294-5.815,13.2-13.204,13.2c-5.334,0-8.611-2.225-10.606-4.502
				c-1.147-1.283-2.063-2.801-2.724-4.497L557.496,797.923z"/>
			<path d="M597.784,776.375h-9.456v-10.104h29.627v10.104h-9.695v33.64h-10.476V776.375z"/>
			<path d="M657.39,810.07l-3.521-7.707h-14.654l-3.51,7.707H624.5l18.296-43.855h7.51l18.121,43.855H657.39z M643.083,792.78h6.855
				l-3.4-8.233L643.083,792.78z"/>
			<path d="M684.653,776.375h-9.45v-10.104h29.617v10.104h-9.695v33.64h-10.472V776.375z"/>
			<path d="M731.049,793.08v6.89h15.563v10.101h-26.039v-43.799h26.039v10.104h-15.563v6.598h15.563v10.107H731.049z"/>
		</g>
	
	</g>
</g>

</svg>
